<?xml version="1.0" encoding="UTF-8" ?>
<svg version="1.1" width="32" height="32" xmlns="http://www.w3.org/2000/svg" shape-rendering="crispEdges">
<rect x="0" y="0" width="32" height="2" fill="#FFFFFF" />
<rect x="0" y="2" width="2" height="30" fill="#FFFFFF" />
<rect x="30" y="2" width="2" height="30" fill="#FFFFFF" />
<rect x="5" y="4" width="1" height="11" fill="#FFFFFF" />
<rect x="26" y="4" width="1" height="11" fill="#FFFFFF" />
<rect x="6" y="5" width="5" height="1" fill="#FFFFFF" />
<rect x="21" y="5" width="5" height="1" fill="#FFFFFF" />
<rect x="9" y="6" width="4" height="1" fill="#FFFFFF" />
<rect x="19" y="6" width="4" height="1" fill="#FFFFFF" />
<rect x="12" y="7" width="8" height="1" fill="#FFFFFF" />
<rect x="24" y="8" width="1" height="4" fill="#FFFFFF" />
<rect x="8" y="9" width="1" height="10" fill="#FFFFFF" />
<rect x="23" y="9" width="1" height="10" fill="#FFFFFF" />
<rect x="9" y="10" width="2" height="10" fill="#FFFFFF" />
<rect x="6" y="14" width="1" height="7" fill="#FFFFFF" />
<rect x="25" y="14" width="1" height="7" fill="#FFFFFF" />
<rect x="11" y="15" width="1" height="6" fill="#FFFFFF" />
<rect x="21" y="15" width="2" height="5" fill="#FFFFFF" />
<rect x="12" y="18" width="1" height="5" fill="#FFFFFF" />
<rect x="13" y="19" width="1" height="5" fill="#FFFFFF" />
<rect x="7" y="20" width="1" height="3" fill="#FFFFFF" />
<rect x="24" y="20" width="1" height="3" fill="#FFFFFF" />
<rect x="8" y="22" width="1" height="3" fill="#FFFFFF" />
<rect x="23" y="22" width="1" height="3" fill="#FFFFFF" />
<rect x="14" y="23" width="1" height="2" fill="#FFFFFF" />
<rect x="9" y="24" width="2" height="2" fill="#FFFFFF" />
<rect x="21" y="24" width="2" height="2" fill="#FFFFFF" />
<rect x="11" y="25" width="1" height="2" fill="#FFFFFF" />
<rect x="20" y="25" width="1" height="2" fill="#FFFFFF" />
<rect x="12" y="26" width="1" height="2" fill="#FFFFFF" />
<rect x="19" y="26" width="1" height="2" fill="#FFFFFF" />
<rect x="13" y="27" width="2" height="1" fill="#FFFFFF" />
<rect x="17" y="27" width="2" height="1" fill="#FFFFFF" />
<rect x="14" y="28" width="4" height="1" fill="#FFFFFF" />
<rect x="2" y="30" width="28" height="2" fill="#FFFFFF" />
</svg>